# xmcd CD database file
#
# Track frame offsets:
#	150
#	18337
#	28866
#	40474
#	54730
#	62642
#	72598
#	79687
#	91936
#	99284
#	103563
#	114344
#	130379
#	142501
#
# Disc length: 1966 seconds
#
# Revision: 0
# Processed by: cddbd v1.5.2PL0 Copyright (c) Steve Scherf et al.
# Submitted via: CDex 1.51
#
DISCID=b507ac0e
DTITLE=Manfred Krug - Liederwelt
DYEAR=2015
DGENRE=Jazz
TTITLE0=Summertime
TTITLE1=Ob Kitty, ob Käthchen
TTITLE2=Über die Liebe
TTITLE3=Yankee - Kreuzer unterwegs
TTITLE4=Der Song vom Tower
TTITLE5=Venus - Lied
TTITLE6=In eigener Sache (Dr. Servatius)
TTITLE7=Auf der Sonnenseite
TTITLE8=Es geht eine dunkle Wolk` herein
TTITLE9=Guten Abend, Gut Nacht
TTITLE10=Rosetta
TTITLE11=Vor einem Jahr
TTITLE12=Twist in der Nacht
TTITLE13=O Schatz, auf welchen Wegen irrt ihr
EXTD=YEAR: 2015
EXTT0=
EXTT1=
EXTT2=
EXTT3=
EXTT4=
EXTT5=
EXTT6=
EXTT7=
EXTT8=
EXTT9=
EXTT10=
EXTT11=
EXTT12=
EXTT13=
PLAYORDER=
